<mxfile host="app.diagrams.net" agent="Mozilla/5.0 (Windows NT 10.0; Win64; x64) AppleWebKit/537.36 (KHTML, like Gecko) Chrome/131.0.0.0 Safari/537.36" version="24.8.9">
  <diagram name="Página-1" id="7gcIGqeq8w1hTXjiVoMl">
    <mxGraphModel dx="1411" dy="720" grid="1" gridSize="10" guides="1" tooltips="1" connect="1" arrows="1" fold="1" page="1" pageScale="1" pageWidth="1169" pageHeight="1654" math="0" shadow="0">
      <root>
        <mxCell id="0" />
        <mxCell id="1" parent="0" />
        <mxCell id="dPz5BpL2D5ZgfB60tH8p-1" value="Início" style="ellipse;whiteSpace=wrap;html=1;" vertex="1" parent="1">
          <mxGeometry x="239" y="12" width="120" height="50" as="geometry" />
        </mxCell>
        <mxCell id="dPz5BpL2D5ZgfB60tH8p-2" value="" style="endArrow=classic;html=1;rounded=0;" edge="1" parent="1">
          <mxGeometry width="50" height="50" relative="1" as="geometry">
            <mxPoint x="298.5" y="62" as="sourcePoint" />
            <mxPoint x="298.5" y="112" as="targetPoint" />
          </mxGeometry>
        </mxCell>
        <mxCell id="dPz5BpL2D5ZgfB60tH8p-3" value="Saldo" style="shape=manualInput;whiteSpace=wrap;html=1;size=13;" vertex="1" parent="1">
          <mxGeometry x="239" y="105" width="120" height="60" as="geometry" />
        </mxCell>
        <mxCell id="dPz5BpL2D5ZgfB60tH8p-5" value="" style="endArrow=classic;html=1;rounded=0;" edge="1" parent="1">
          <mxGeometry width="50" height="50" relative="1" as="geometry">
            <mxPoint x="359" y="134.14" as="sourcePoint" />
            <mxPoint x="439" y="135.85428571428565" as="targetPoint" />
          </mxGeometry>
        </mxCell>
        <mxCell id="dPz5BpL2D5ZgfB60tH8p-6" value="Saldo inicial:&lt;div&gt;&amp;nbsp;&quot;+ saldo&lt;/div&gt;" style="shape=display;whiteSpace=wrap;html=1;" vertex="1" parent="1">
          <mxGeometry x="439" y="107.5" width="120" height="55" as="geometry" />
        </mxCell>
        <mxCell id="dPz5BpL2D5ZgfB60tH8p-10" style="edgeStyle=orthogonalEdgeStyle;rounded=0;orthogonalLoop=1;jettySize=auto;html=1;exitX=0.75;exitY=0;exitDx=0;exitDy=0;" edge="1" parent="1" source="dPz5BpL2D5ZgfB60tH8p-9">
          <mxGeometry relative="1" as="geometry">
            <mxPoint x="329" y="222" as="targetPoint" />
          </mxGeometry>
        </mxCell>
        <mxCell id="dPz5BpL2D5ZgfB60tH8p-9" value="Encerrar = &#39;n&#39;" style="rounded=0;whiteSpace=wrap;html=1;" vertex="1" parent="1">
          <mxGeometry x="239" y="210" width="120" height="60" as="geometry" />
        </mxCell>
        <mxCell id="dPz5BpL2D5ZgfB60tH8p-11" value="Encerrar = &#39;n&#39;" style="strokeWidth=2;html=1;shape=mxgraph.flowchart.decision;whiteSpace=wrap;" vertex="1" parent="1">
          <mxGeometry x="239" y="300" width="120" height="120" as="geometry" />
        </mxCell>
        <mxCell id="dPz5BpL2D5ZgfB60tH8p-12" value="Tipo de entrada" style="shape=manualInput;whiteSpace=wrap;html=1;size=13;" vertex="1" parent="1">
          <mxGeometry x="239" y="450" width="120" height="60" as="geometry" />
        </mxCell>
        <mxCell id="dPz5BpL2D5ZgfB60tH8p-13" value="quantidade" style="shape=manualInput;whiteSpace=wrap;html=1;size=13;" vertex="1" parent="1">
          <mxGeometry x="239" y="550" width="120" height="60" as="geometry" />
        </mxCell>
        <mxCell id="dPz5BpL2D5ZgfB60tH8p-14" value="tipo de entrada = 1" style="strokeWidth=2;html=1;shape=mxgraph.flowchart.decision;whiteSpace=wrap;" vertex="1" parent="1">
          <mxGeometry x="239" y="647" width="120" height="120" as="geometry" />
        </mxCell>
        <mxCell id="dPz5BpL2D5ZgfB60tH8p-15" value="saldo = saldo +&lt;div&gt;quantidade&lt;/div&gt;" style="rounded=0;whiteSpace=wrap;html=1;" vertex="1" parent="1">
          <mxGeometry x="439" y="677" width="120" height="60" as="geometry" />
        </mxCell>
        <mxCell id="dPz5BpL2D5ZgfB60tH8p-16" value="&quot;Entrada: &quot;+&lt;div&gt;quantidade&lt;/div&gt;" style="shape=display;whiteSpace=wrap;html=1;" vertex="1" parent="1">
          <mxGeometry x="644" y="679" width="120" height="55" as="geometry" />
        </mxCell>
        <mxCell id="dPz5BpL2D5ZgfB60tH8p-17" value="tipo entrada = 2" style="strokeWidth=2;html=1;shape=mxgraph.flowchart.decision;whiteSpace=wrap;" vertex="1" parent="1">
          <mxGeometry x="239" y="800" width="120" height="120" as="geometry" />
        </mxCell>
        <mxCell id="dPz5BpL2D5ZgfB60tH8p-19" value="" style="endArrow=none;html=1;rounded=0;" edge="1" parent="1">
          <mxGeometry width="50" height="50" relative="1" as="geometry">
            <mxPoint x="499" y="240" as="sourcePoint" />
            <mxPoint x="498.52" y="162.5" as="targetPoint" />
          </mxGeometry>
        </mxCell>
        <mxCell id="dPz5BpL2D5ZgfB60tH8p-20" value="" style="endArrow=classic;html=1;rounded=0;entryX=1;entryY=0.5;entryDx=0;entryDy=0;" edge="1" parent="1" target="dPz5BpL2D5ZgfB60tH8p-9">
          <mxGeometry width="50" height="50" relative="1" as="geometry">
            <mxPoint x="499" y="240" as="sourcePoint" />
            <mxPoint x="439" y="240" as="targetPoint" />
          </mxGeometry>
        </mxCell>
        <mxCell id="dPz5BpL2D5ZgfB60tH8p-22" value="" style="endArrow=classic;html=1;rounded=0;" edge="1" parent="1">
          <mxGeometry width="50" height="50" relative="1" as="geometry">
            <mxPoint x="298.52" y="270" as="sourcePoint" />
            <mxPoint x="299" y="300" as="targetPoint" />
          </mxGeometry>
        </mxCell>
        <mxCell id="dPz5BpL2D5ZgfB60tH8p-23" value="" style="endArrow=classic;html=1;rounded=0;jumpSize=6;strokeWidth=1;endSize=6;startSize=6;curved=0;" edge="1" parent="1">
          <mxGeometry width="50" height="50" relative="1" as="geometry">
            <mxPoint x="299" y="420" as="sourcePoint" />
            <mxPoint x="298.52" y="456" as="targetPoint" />
          </mxGeometry>
        </mxCell>
        <mxCell id="dPz5BpL2D5ZgfB60tH8p-24" value="&lt;font style=&quot;font-size: 20px;&quot;&gt;&lt;b style=&quot;&quot;&gt;V&lt;/b&gt;&lt;/font&gt;" style="text;html=1;align=center;verticalAlign=middle;resizable=0;points=[];autosize=1;strokeColor=none;fillColor=none;" vertex="1" parent="1">
          <mxGeometry x="254" y="415" width="40" height="40" as="geometry" />
        </mxCell>
        <mxCell id="dPz5BpL2D5ZgfB60tH8p-25" value="saldo = saldo -&lt;div&gt;quatidade&lt;/div&gt;" style="rounded=0;whiteSpace=wrap;html=1;" vertex="1" parent="1">
          <mxGeometry x="639" y="830" width="120" height="60" as="geometry" />
        </mxCell>
        <mxCell id="dPz5BpL2D5ZgfB60tH8p-26" value="saldo &amp;gt;=&lt;div&gt;quantidade&lt;/div&gt;" style="strokeWidth=2;html=1;shape=mxgraph.flowchart.decision;whiteSpace=wrap;" vertex="1" parent="1">
          <mxGeometry x="439" y="800" width="120" height="120" as="geometry" />
        </mxCell>
        <mxCell id="dPz5BpL2D5ZgfB60tH8p-27" value="&quot;Saldo&lt;div&gt;insuficiente&quot;&lt;/div&gt;" style="shape=display;whiteSpace=wrap;html=1;" vertex="1" parent="1">
          <mxGeometry x="439" y="960" width="120" height="55" as="geometry" />
        </mxCell>
        <mxCell id="dPz5BpL2D5ZgfB60tH8p-28" value="&quot;Saída: &quot; +&lt;div&gt;quantidade&lt;/div&gt;" style="shape=display;whiteSpace=wrap;html=1;" vertex="1" parent="1">
          <mxGeometry x="639" y="960" width="120" height="55" as="geometry" />
        </mxCell>
        <mxCell id="dPz5BpL2D5ZgfB60tH8p-29" value="saldo" style="shape=display;whiteSpace=wrap;html=1;" vertex="1" parent="1">
          <mxGeometry x="239" y="1080" width="120" height="55" as="geometry" />
        </mxCell>
        <mxCell id="dPz5BpL2D5ZgfB60tH8p-30" value="encerrar ? (s/n)" style="shape=manualInput;whiteSpace=wrap;html=1;size=13;" vertex="1" parent="1">
          <mxGeometry x="239" y="1188" width="120" height="60" as="geometry" />
        </mxCell>
        <mxCell id="dPz5BpL2D5ZgfB60tH8p-31" value="&quot;Sistema&lt;div&gt;encerrado&quot;&lt;/div&gt;" style="shape=display;whiteSpace=wrap;html=1;" vertex="1" parent="1">
          <mxGeometry x="239" y="1294" width="120" height="55" as="geometry" />
        </mxCell>
        <mxCell id="dPz5BpL2D5ZgfB60tH8p-32" value="Fim" style="ellipse;whiteSpace=wrap;html=1;" vertex="1" parent="1">
          <mxGeometry x="239" y="1390" width="120" height="50" as="geometry" />
        </mxCell>
        <mxCell id="dPz5BpL2D5ZgfB60tH8p-33" value="" style="endArrow=classic;html=1;rounded=0;" edge="1" parent="1">
          <mxGeometry width="50" height="50" relative="1" as="geometry">
            <mxPoint x="298.52" y="510" as="sourcePoint" />
            <mxPoint x="299" y="550" as="targetPoint" />
          </mxGeometry>
        </mxCell>
        <mxCell id="dPz5BpL2D5ZgfB60tH8p-34" value="" style="endArrow=classic;html=1;rounded=0;" edge="1" parent="1">
          <mxGeometry width="50" height="50" relative="1" as="geometry">
            <mxPoint x="299" y="610" as="sourcePoint" />
            <mxPoint x="299.48" y="645" as="targetPoint" />
          </mxGeometry>
        </mxCell>
        <mxCell id="dPz5BpL2D5ZgfB60tH8p-35" value="" style="endArrow=classic;html=1;rounded=0;entryX=0;entryY=0.5;entryDx=0;entryDy=0;" edge="1" parent="1" target="dPz5BpL2D5ZgfB60tH8p-15">
          <mxGeometry width="50" height="50" relative="1" as="geometry">
            <mxPoint x="359" y="706.52" as="sourcePoint" />
            <mxPoint x="409" y="706.52" as="targetPoint" />
          </mxGeometry>
        </mxCell>
        <mxCell id="dPz5BpL2D5ZgfB60tH8p-36" value="" style="endArrow=classic;html=1;rounded=0;" edge="1" parent="1">
          <mxGeometry width="50" height="50" relative="1" as="geometry">
            <mxPoint x="559" y="706.52" as="sourcePoint" />
            <mxPoint x="639" y="707" as="targetPoint" />
          </mxGeometry>
        </mxCell>
        <mxCell id="dPz5BpL2D5ZgfB60tH8p-38" value="" style="endArrow=classic;html=1;rounded=0;" edge="1" parent="1">
          <mxGeometry width="50" height="50" relative="1" as="geometry">
            <mxPoint x="298.52" y="767" as="sourcePoint" />
            <mxPoint x="299" y="800" as="targetPoint" />
          </mxGeometry>
        </mxCell>
        <mxCell id="dPz5BpL2D5ZgfB60tH8p-39" value="&lt;b&gt;&lt;font style=&quot;font-size: 20px;&quot;&gt;F&lt;/font&gt;&lt;/b&gt;" style="text;html=1;align=center;verticalAlign=middle;resizable=0;points=[];autosize=1;strokeColor=none;fillColor=none;" vertex="1" parent="1">
          <mxGeometry x="254" y="762" width="40" height="40" as="geometry" />
        </mxCell>
        <mxCell id="dPz5BpL2D5ZgfB60tH8p-40" value="" style="endArrow=classic;html=1;rounded=0;" edge="1" parent="1">
          <mxGeometry width="50" height="50" relative="1" as="geometry">
            <mxPoint x="699" y="780" as="sourcePoint" />
            <mxPoint x="319" y="780" as="targetPoint" />
          </mxGeometry>
        </mxCell>
        <mxCell id="dPz5BpL2D5ZgfB60tH8p-41" value="" style="endArrow=none;html=1;rounded=0;" edge="1" parent="1">
          <mxGeometry width="50" height="50" relative="1" as="geometry">
            <mxPoint x="699" y="780" as="sourcePoint" />
            <mxPoint x="698.52" y="734" as="targetPoint" />
          </mxGeometry>
        </mxCell>
        <mxCell id="dPz5BpL2D5ZgfB60tH8p-42" value="" style="endArrow=classic;html=1;rounded=0;entryX=0;entryY=0.5;entryDx=0;entryDy=0;" edge="1" parent="1">
          <mxGeometry width="50" height="50" relative="1" as="geometry">
            <mxPoint x="359" y="859.52" as="sourcePoint" />
            <mxPoint x="439" y="860" as="targetPoint" />
          </mxGeometry>
        </mxCell>
        <mxCell id="dPz5BpL2D5ZgfB60tH8p-43" value="" style="endArrow=classic;html=1;rounded=0;entryX=0;entryY=0.5;entryDx=0;entryDy=0;" edge="1" parent="1">
          <mxGeometry width="50" height="50" relative="1" as="geometry">
            <mxPoint x="559" y="859.52" as="sourcePoint" />
            <mxPoint x="639" y="860" as="targetPoint" />
          </mxGeometry>
        </mxCell>
        <mxCell id="dPz5BpL2D5ZgfB60tH8p-44" value="" style="endArrow=classic;html=1;rounded=0;exitX=0.5;exitY=1;exitDx=0;exitDy=0;exitPerimeter=0;" edge="1" parent="1" source="dPz5BpL2D5ZgfB60tH8p-26">
          <mxGeometry width="50" height="50" relative="1" as="geometry">
            <mxPoint x="498.52" y="930" as="sourcePoint" />
            <mxPoint x="499" y="960" as="targetPoint" />
          </mxGeometry>
        </mxCell>
        <mxCell id="dPz5BpL2D5ZgfB60tH8p-45" value="" style="endArrow=classic;html=1;rounded=0;entryX=0;entryY=0;entryDx=61.25;entryDy=0;entryPerimeter=0;" edge="1" parent="1" target="dPz5BpL2D5ZgfB60tH8p-28">
          <mxGeometry width="50" height="50" relative="1" as="geometry">
            <mxPoint x="698.52" y="890" as="sourcePoint" />
            <mxPoint x="698.52" y="940" as="targetPoint" />
          </mxGeometry>
        </mxCell>
        <mxCell id="dPz5BpL2D5ZgfB60tH8p-46" value="" style="endArrow=classic;html=1;rounded=0;entryX=0;entryY=0;entryDx=61.25;entryDy=0;entryPerimeter=0;" edge="1" parent="1" target="dPz5BpL2D5ZgfB60tH8p-29">
          <mxGeometry width="50" height="50" relative="1" as="geometry">
            <mxPoint x="298.52" y="920" as="sourcePoint" />
            <mxPoint x="298.52" y="970" as="targetPoint" />
          </mxGeometry>
        </mxCell>
        <mxCell id="dPz5BpL2D5ZgfB60tH8p-47" value="&lt;b&gt;&lt;font style=&quot;font-size: 20px;&quot;&gt;F&lt;/font&gt;&lt;/b&gt;" style="text;html=1;align=center;verticalAlign=middle;resizable=0;points=[];autosize=1;strokeColor=none;fillColor=none;" vertex="1" parent="1">
          <mxGeometry x="254" y="967.5" width="40" height="40" as="geometry" />
        </mxCell>
        <mxCell id="dPz5BpL2D5ZgfB60tH8p-48" value="" style="endArrow=classic;html=1;rounded=0;" edge="1" parent="1">
          <mxGeometry width="50" height="50" relative="1" as="geometry">
            <mxPoint x="699" y="1070" as="sourcePoint" />
            <mxPoint x="319" y="1070" as="targetPoint" />
          </mxGeometry>
        </mxCell>
        <mxCell id="dPz5BpL2D5ZgfB60tH8p-49" value="" style="endArrow=classic;html=1;rounded=0;" edge="1" parent="1">
          <mxGeometry width="50" height="50" relative="1" as="geometry">
            <mxPoint x="499" y="1040" as="sourcePoint" />
            <mxPoint x="319" y="1040" as="targetPoint" />
          </mxGeometry>
        </mxCell>
        <mxCell id="dPz5BpL2D5ZgfB60tH8p-50" value="" style="endArrow=none;html=1;rounded=0;entryX=0;entryY=0;entryDx=61.25;entryDy=55;entryPerimeter=0;" edge="1" parent="1" target="dPz5BpL2D5ZgfB60tH8p-28">
          <mxGeometry width="50" height="50" relative="1" as="geometry">
            <mxPoint x="699" y="1070" as="sourcePoint" />
            <mxPoint x="698.52" y="1020" as="targetPoint" />
          </mxGeometry>
        </mxCell>
        <mxCell id="dPz5BpL2D5ZgfB60tH8p-51" value="" style="endArrow=none;html=1;rounded=0;" edge="1" parent="1">
          <mxGeometry width="50" height="50" relative="1" as="geometry">
            <mxPoint x="499" y="1040" as="sourcePoint" />
            <mxPoint x="498.52" y="1015" as="targetPoint" />
          </mxGeometry>
        </mxCell>
        <mxCell id="dPz5BpL2D5ZgfB60tH8p-52" value="&lt;b&gt;&lt;font style=&quot;font-size: 20px;&quot;&gt;F&lt;/font&gt;&lt;/b&gt;" style="text;html=1;align=center;verticalAlign=middle;resizable=0;points=[];autosize=1;strokeColor=none;fillColor=none;" vertex="1" parent="1">
          <mxGeometry x="464" y="915" width="40" height="40" as="geometry" />
        </mxCell>
        <mxCell id="dPz5BpL2D5ZgfB60tH8p-53" value="&lt;font style=&quot;font-size: 20px;&quot;&gt;&lt;b style=&quot;&quot;&gt;V&lt;/b&gt;&lt;/font&gt;" style="text;html=1;align=center;verticalAlign=middle;resizable=0;points=[];autosize=1;strokeColor=none;fillColor=none;" vertex="1" parent="1">
          <mxGeometry x="374" y="672" width="40" height="40" as="geometry" />
        </mxCell>
        <mxCell id="dPz5BpL2D5ZgfB60tH8p-54" value="&lt;font style=&quot;font-size: 20px;&quot;&gt;&lt;b style=&quot;&quot;&gt;V&lt;/b&gt;&lt;/font&gt;" style="text;html=1;align=center;verticalAlign=middle;resizable=0;points=[];autosize=1;strokeColor=none;fillColor=none;" vertex="1" parent="1">
          <mxGeometry x="574" y="822" width="40" height="40" as="geometry" />
        </mxCell>
        <mxCell id="dPz5BpL2D5ZgfB60tH8p-55" value="&lt;font style=&quot;font-size: 20px;&quot;&gt;&lt;b style=&quot;&quot;&gt;V&lt;/b&gt;&lt;/font&gt;" style="text;html=1;align=center;verticalAlign=middle;resizable=0;points=[];autosize=1;strokeColor=none;fillColor=none;" vertex="1" parent="1">
          <mxGeometry x="374" y="822" width="40" height="40" as="geometry" />
        </mxCell>
        <mxCell id="dPz5BpL2D5ZgfB60tH8p-56" value="" style="endArrow=classic;html=1;rounded=0;" edge="1" parent="1">
          <mxGeometry width="50" height="50" relative="1" as="geometry">
            <mxPoint x="298.52" y="1138" as="sourcePoint" />
            <mxPoint x="298.52" y="1188" as="targetPoint" />
          </mxGeometry>
        </mxCell>
        <mxCell id="dPz5BpL2D5ZgfB60tH8p-57" value="" style="endArrow=classic;html=1;rounded=0;entryX=0.5;entryY=0;entryDx=0;entryDy=0;" edge="1" parent="1" target="dPz5BpL2D5ZgfB60tH8p-32">
          <mxGeometry width="50" height="50" relative="1" as="geometry">
            <mxPoint x="298.52" y="1349" as="sourcePoint" />
            <mxPoint x="299" y="1380" as="targetPoint" />
          </mxGeometry>
        </mxCell>
        <mxCell id="dPz5BpL2D5ZgfB60tH8p-58" value="" style="endArrow=none;html=1;rounded=0;" edge="1" parent="1">
          <mxGeometry width="50" height="50" relative="1" as="geometry">
            <mxPoint x="839" y="1320" as="sourcePoint" />
            <mxPoint x="839" y="360" as="targetPoint" />
          </mxGeometry>
        </mxCell>
        <mxCell id="dPz5BpL2D5ZgfB60tH8p-59" value="" style="endArrow=classic;html=1;rounded=0;entryX=1;entryY=0.5;entryDx=0;entryDy=0;entryPerimeter=0;" edge="1" parent="1" target="dPz5BpL2D5ZgfB60tH8p-31">
          <mxGeometry width="50" height="50" relative="1" as="geometry">
            <mxPoint x="839" y="1320" as="sourcePoint" />
            <mxPoint x="459" y="1321.02" as="targetPoint" />
          </mxGeometry>
        </mxCell>
        <mxCell id="dPz5BpL2D5ZgfB60tH8p-60" value="" style="endArrow=none;html=1;rounded=0;entryX=1;entryY=0.5;entryDx=0;entryDy=0;entryPerimeter=0;" edge="1" parent="1" target="dPz5BpL2D5ZgfB60tH8p-11">
          <mxGeometry width="50" height="50" relative="1" as="geometry">
            <mxPoint x="839" y="360" as="sourcePoint" />
            <mxPoint x="839" y="290" as="targetPoint" />
          </mxGeometry>
        </mxCell>
        <mxCell id="dPz5BpL2D5ZgfB60tH8p-61" value="" style="endArrow=none;html=1;rounded=0;" edge="1" parent="1">
          <mxGeometry width="50" height="50" relative="1" as="geometry">
            <mxPoint x="237.82" y="1220" as="sourcePoint" />
            <mxPoint x="160" y="1220" as="targetPoint" />
          </mxGeometry>
        </mxCell>
        <mxCell id="dPz5BpL2D5ZgfB60tH8p-62" value="" style="endArrow=none;html=1;rounded=0;" edge="1" parent="1">
          <mxGeometry width="50" height="50" relative="1" as="geometry">
            <mxPoint x="160" y="1220" as="sourcePoint" />
            <mxPoint x="160" y="360" as="targetPoint" />
          </mxGeometry>
        </mxCell>
        <mxCell id="dPz5BpL2D5ZgfB60tH8p-64" value="" style="endArrow=classic;html=1;rounded=0;entryX=0;entryY=0.5;entryDx=0;entryDy=0;entryPerimeter=0;" edge="1" parent="1" target="dPz5BpL2D5ZgfB60tH8p-11">
          <mxGeometry width="50" height="50" relative="1" as="geometry">
            <mxPoint x="160" y="359.40999999999997" as="sourcePoint" />
            <mxPoint x="210" y="359.40999999999997" as="targetPoint" />
          </mxGeometry>
        </mxCell>
        <mxCell id="dPz5BpL2D5ZgfB60tH8p-65" value="&lt;b&gt;&lt;font style=&quot;font-size: 20px;&quot;&gt;F&lt;/font&gt;&lt;/b&gt;" style="text;html=1;align=center;verticalAlign=middle;resizable=0;points=[];autosize=1;strokeColor=none;fillColor=none;" vertex="1" parent="1">
          <mxGeometry x="534" y="320" width="40" height="40" as="geometry" />
        </mxCell>
      </root>
    </mxGraphModel>
  </diagram>
</mxfile>
